<svg width="80" height="30" viewBox="0 0 80 30" fill="none" xmlns="http://www.w3.org/2000/svg">
<path d="M10.7585 18V9.27273H16.6392V10.794H12.6037V12.8736H16.3366V14.3949H12.6037V16.4787H16.6562V18H10.7585ZM19.6829 9.27273L21.7923 15.9034H21.8732L23.9869 9.27273H26.0323L23.0238 18H20.646L17.6332 9.27273H19.6829ZM34.6104 13.6364C34.6104 14.5881 34.43 15.3977 34.0692 16.0653C33.7113 16.733 33.2227 17.2429 32.6033 17.5952C31.9869 17.9446 31.2937 18.1193 30.5238 18.1193C29.7482 18.1193 29.0522 17.9432 28.4357 17.5909C27.8192 17.2386 27.332 16.7287 26.9741 16.0611C26.6161 15.3935 26.4371 14.5852 26.4371 13.6364C26.4371 12.6847 26.6161 11.875 26.9741 11.2074C27.332 10.5398 27.8192 10.0312 28.4357 9.68182C29.0522 9.32955 29.7482 9.15341 30.5238 9.15341C31.2937 9.15341 31.9869 9.32955 32.6033 9.68182C33.2227 10.0312 33.7113 10.5398 34.0692 11.2074C34.43 11.875 34.6104 12.6847 34.6104 13.6364ZM32.7397 13.6364C32.7397 13.0199 32.6474 12.5 32.4627 12.0767C32.2809 11.6534 32.0238 11.3324 31.6914 11.1136C31.359 10.8949 30.9698 10.7855 30.5238 10.7855C30.0778 10.7855 29.6886 10.8949 29.3562 11.1136C29.0238 11.3324 28.7653 11.6534 28.5806 12.0767C28.3988 12.5 28.3079 13.0199 28.3079 13.6364C28.3079 14.2528 28.3988 14.7727 28.5806 15.196C28.7653 15.6193 29.0238 15.9403 29.3562 16.1591C29.6886 16.3778 30.0778 16.4872 30.5238 16.4872C30.9698 16.4872 31.359 16.3778 31.6914 16.1591C32.0238 15.9403 32.2809 15.6193 32.4627 15.196C32.6474 14.7727 32.7397 14.2528 32.7397 13.6364ZM35.9773 18V9.27273H37.8224V16.4787H41.5639V18H35.9773ZM48.1765 9.27273H50.0217V14.9403C50.0217 15.5767 49.8697 16.1335 49.5657 16.6108C49.2646 17.0881 48.8427 17.4602 48.3001 17.7273C47.7575 17.9915 47.1254 18.1236 46.4038 18.1236C45.6793 18.1236 45.0458 17.9915 44.5032 17.7273C43.9606 17.4602 43.5387 17.0881 43.2376 16.6108C42.9364 16.1335 42.7859 15.5767 42.7859 14.9403V9.27273H44.631V14.7827C44.631 15.1151 44.7035 15.4105 44.8484 15.669C44.9961 15.9276 45.2035 16.1307 45.4705 16.2784C45.7376 16.4261 46.0487 16.5 46.4038 16.5C46.7617 16.5 47.0728 16.4261 47.337 16.2784C47.604 16.1307 47.81 15.9276 47.9549 15.669C48.1026 15.4105 48.1765 15.1151 48.1765 14.7827V9.27273ZM51.2074 10.794V9.27273H58.375V10.794H55.7031V18H53.8793V10.794H51.2074ZM61.4006 9.27273V18H59.5554V9.27273H61.4006ZM64.4954 9.27273L66.6048 15.9034H66.6857L68.7994 9.27273H70.8448L67.8363 18H65.4585L62.4457 9.27273H64.4954ZM72.2393 18H70.2621L73.2749 9.27273H75.6527L78.6612 18H76.6839L74.4979 11.267H74.4297L72.2393 18ZM72.1158 14.5696H76.7862V16.0099H72.1158V14.5696Z" fill="black"/>
<path d="M31.389 27.11C30.839 27.11 30.333 27.0147 29.871 26.824C29.409 26.6333 29.0057 26.3657 28.661 26.021C28.3237 25.669 28.0633 25.2547 27.88 24.778C27.6967 24.294 27.605 23.766 27.605 23.194C27.605 22.6073 27.6967 22.072 27.88 21.588C28.0633 21.0967 28.3237 20.675 28.661 20.323C29.0057 19.9637 29.409 19.685 29.871 19.487C30.333 19.289 30.839 19.19 31.389 19.19C31.7777 19.19 32.1407 19.245 32.478 19.355C32.8227 19.4577 33.138 19.6043 33.424 19.795C33.7173 19.9857 33.9777 20.2093 34.205 20.466L34.007 20.642C33.7943 20.4 33.5523 20.1873 33.281 20.004C33.0097 19.8207 32.7163 19.6813 32.401 19.586C32.0857 19.4833 31.7483 19.432 31.389 19.432C30.883 19.432 30.4137 19.5273 29.981 19.718C29.5483 19.9013 29.1743 20.1617 28.859 20.499C28.5437 20.8363 28.298 21.236 28.122 21.698C27.946 22.1527 27.858 22.6513 27.858 23.194C27.858 23.7293 27.946 24.2207 28.122 24.668C28.298 25.1153 28.5437 25.504 28.859 25.834C29.1743 26.164 29.5483 26.4207 29.981 26.604C30.4137 26.78 30.883 26.868 31.389 26.868C31.719 26.868 32.0343 26.8313 32.335 26.758C32.6357 26.6773 32.9143 26.5673 33.171 26.428C33.4277 26.2813 33.6587 26.109 33.864 25.911L34.029 26.109C33.809 26.3217 33.5597 26.5013 33.281 26.648C33.0097 26.7947 32.7127 26.9083 32.39 26.989C32.0747 27.0697 31.741 27.11 31.389 27.11ZM37.9827 27.11C37.4034 27.11 36.8901 26.9817 36.4427 26.725C36.0027 26.4683 35.6581 26.1127 35.4087 25.658C35.1594 25.2033 35.0347 24.6863 35.0347 24.107C35.0347 23.535 35.1594 23.029 35.4087 22.589C35.6581 22.1417 36.0027 21.7933 36.4427 21.544C36.8901 21.2947 37.4034 21.17 37.9827 21.17C38.5621 21.17 39.0717 21.2947 39.5117 21.544C39.9591 21.7933 40.3037 22.1417 40.5457 22.589C40.7951 23.029 40.9197 23.535 40.9197 24.107C40.9197 24.6863 40.7951 25.2033 40.5457 25.658C40.3037 26.1127 39.9591 26.4683 39.5117 26.725C39.0717 26.9817 38.5621 27.11 37.9827 27.11ZM37.9827 26.868C38.5034 26.868 38.9654 26.7507 39.3687 26.516C39.7721 26.2813 40.0911 25.955 40.3257 25.537C40.5604 25.119 40.6777 24.6423 40.6777 24.107C40.6777 23.5863 40.5604 23.1243 40.3257 22.721C40.0911 22.3177 39.7721 21.9987 39.3687 21.764C38.9654 21.5293 38.5034 21.412 37.9827 21.412C37.4621 21.412 36.9964 21.5293 36.5857 21.764C36.1824 21.9987 35.8634 22.3177 35.6287 22.721C35.3941 23.1243 35.2767 23.5863 35.2767 24.107C35.2767 24.6423 35.3941 25.119 35.6287 25.537C35.8634 25.955 36.1824 26.2813 36.5857 26.516C36.9964 26.7507 37.4621 26.868 37.9827 26.868ZM42.1323 27V21.225H42.3523L42.3743 22.556L42.2753 22.589C42.356 22.3397 42.5063 22.1087 42.7263 21.896C42.9463 21.676 43.2103 21.5 43.5183 21.368C43.8336 21.236 44.171 21.17 44.5303 21.17C44.963 21.17 45.3296 21.247 45.6303 21.401C45.931 21.555 46.162 21.797 46.3233 22.127C46.4846 22.4497 46.5653 22.8713 46.5653 23.392V27H46.3233V23.392C46.3233 22.93 46.25 22.5523 46.1033 22.259C45.964 21.9657 45.7586 21.753 45.4873 21.621C45.2233 21.4817 44.897 21.412 44.5083 21.412C44.2003 21.412 43.9143 21.467 43.6503 21.577C43.3936 21.6797 43.17 21.8117 42.9793 21.973C42.7886 22.127 42.6383 22.2883 42.5283 22.457C42.4256 22.6183 42.3743 22.754 42.3743 22.864V27H42.2533C42.2386 27 42.2203 27 42.1983 27C42.1836 27 42.1616 27 42.1323 27ZM50.0415 27.11C49.5575 27.11 49.1175 27.0183 48.7215 26.835C48.3255 26.6517 48.0211 26.4097 47.8085 26.109L47.9955 25.944C48.2008 26.2153 48.4795 26.439 48.8315 26.615C49.1835 26.7837 49.5941 26.868 50.0635 26.868C50.3641 26.868 50.6208 26.8313 50.8335 26.758C51.0461 26.6847 51.2185 26.5857 51.3505 26.461C51.4825 26.3363 51.5815 26.197 51.6475 26.043C51.7135 25.8817 51.7465 25.713 51.7465 25.537C51.7465 25.1777 51.5925 24.8953 51.2845 24.69C51.1378 24.58 50.9545 24.4847 50.7345 24.404C50.5145 24.3233 50.2578 24.25 49.9645 24.184C49.6345 24.1033 49.3411 24.0117 49.0845 23.909C48.8351 23.8063 48.6298 23.689 48.4685 23.557C48.3218 23.4323 48.2118 23.3003 48.1385 23.161C48.0651 23.0143 48.0285 22.853 48.0285 22.677C48.0285 22.4497 48.0725 22.2443 48.1605 22.061C48.2558 21.8777 48.3841 21.72 48.5455 21.588C48.7141 21.4487 48.9158 21.346 49.1505 21.28C49.3925 21.2067 49.6601 21.17 49.9535 21.17C50.2101 21.17 50.4595 21.2067 50.7015 21.28C50.9435 21.3533 51.1708 21.4597 51.3835 21.599C51.5961 21.7383 51.7868 21.907 51.9555 22.105L51.7795 22.303C51.6181 22.1197 51.4421 21.962 51.2515 21.83C51.0608 21.6907 50.8555 21.588 50.6355 21.522C50.4228 21.4487 50.1955 21.412 49.9535 21.412C49.6895 21.412 49.4511 21.445 49.2385 21.511C49.0331 21.5697 48.8571 21.6577 48.7105 21.775C48.5638 21.885 48.4538 22.017 48.3805 22.171C48.3071 22.3177 48.2705 22.4827 48.2705 22.666C48.2705 22.7907 48.2961 22.9117 48.3475 23.029C48.3988 23.1463 48.4831 23.2527 48.6005 23.348C48.7471 23.4727 48.9378 23.5827 49.1725 23.678C49.4145 23.7733 49.6931 23.8577 50.0085 23.931C50.3385 24.0043 50.6245 24.0887 50.8665 24.184C51.1158 24.272 51.3211 24.3783 51.4825 24.503C51.6511 24.6277 51.7758 24.7743 51.8565 24.943C51.9445 25.1117 51.9885 25.3097 51.9885 25.537C51.9885 25.8523 51.9115 26.131 51.7575 26.373C51.6035 26.6077 51.3798 26.791 51.0865 26.923C50.7931 27.0477 50.4448 27.11 50.0415 27.11ZM55.4701 27.11C55.0228 27.11 54.6415 27.033 54.3261 26.879C54.0181 26.7177 53.7835 26.4683 53.6221 26.131C53.4608 25.7937 53.3801 25.361 53.3801 24.833V21.225H53.6221V24.833C53.6221 25.3097 53.6918 25.6983 53.8311 25.999C53.9778 26.2997 54.1905 26.5197 54.4691 26.659C54.7478 26.7983 55.0888 26.868 55.4921 26.868C55.7561 26.868 56.0055 26.813 56.2401 26.703C56.4821 26.593 56.6948 26.4573 56.8781 26.296C57.0615 26.1273 57.2045 25.9587 57.3071 25.79C57.4098 25.6213 57.4611 25.4783 57.4611 25.361V21.225H57.7031V27H57.4831L57.4611 25.669L57.5601 25.647C57.4721 25.911 57.3255 26.153 57.1201 26.373C56.9148 26.593 56.6691 26.7727 56.3831 26.912C56.1045 27.044 55.8001 27.11 55.4701 27.11ZM59.5081 27V18.86H59.7501V27H59.5081ZM62.5235 27V19.751H62.7655V27H62.5235ZM60.9505 21.467V21.225H64.4155V21.467H60.9505ZM65.5332 27V21.225H65.7752V27H65.5332ZM65.6542 19.707C65.5515 19.707 65.4745 19.6777 65.4232 19.619C65.3718 19.5603 65.3462 19.4833 65.3462 19.388C65.3462 19.3 65.3718 19.2267 65.4232 19.168C65.4745 19.102 65.5515 19.069 65.6542 19.069C65.7495 19.069 65.8228 19.0983 65.8742 19.157C65.9328 19.2157 65.9622 19.2927 65.9622 19.388C65.9622 19.4833 65.9365 19.5603 65.8852 19.619C65.8338 19.6777 65.7568 19.707 65.6542 19.707ZM67.5054 27V21.225H67.7254L67.7474 22.556L67.6484 22.589C67.729 22.3397 67.8794 22.1087 68.0994 21.896C68.3194 21.676 68.5834 21.5 68.8914 21.368C69.2067 21.236 69.544 21.17 69.9034 21.17C70.336 21.17 70.7027 21.247 71.0034 21.401C71.304 21.555 71.535 21.797 71.6964 22.127C71.8577 22.4497 71.9384 22.8713 71.9384 23.392V27H71.6964V23.392C71.6964 22.93 71.623 22.5523 71.4764 22.259C71.337 21.9657 71.1317 21.753 70.8604 21.621C70.5964 21.4817 70.27 21.412 69.8814 21.412C69.5734 21.412 69.2874 21.467 69.0234 21.577C68.7667 21.6797 68.543 21.8117 68.3524 21.973C68.1617 22.127 68.0114 22.2883 67.9014 22.457C67.7987 22.6183 67.7474 22.754 67.7474 22.864V27H67.6264C67.6117 27 67.5934 27 67.5714 27C67.5567 27 67.5347 27 67.5054 27ZM75.9205 29.64C75.5245 29.64 75.1505 29.5703 74.7985 29.431C74.4539 29.2917 74.1642 29.09 73.9295 28.826L74.0505 28.606C74.2045 28.7673 74.3732 28.9067 74.5565 29.024C74.7472 29.1413 74.9562 29.233 75.1835 29.299C75.4109 29.365 75.6529 29.398 75.9095 29.398C76.3275 29.398 76.7162 29.288 77.0755 29.068C77.4422 28.848 77.7355 28.5327 77.9555 28.122C78.1829 27.7187 78.2965 27.2347 78.2965 26.67V25.108L78.3955 25.075C78.3002 25.471 78.1315 25.823 77.8895 26.131C77.6475 26.4317 77.3579 26.67 77.0205 26.846C76.6832 27.022 76.3165 27.11 75.9205 27.11C75.3852 27.11 74.9049 26.9853 74.4795 26.736C74.0615 26.4793 73.7315 26.131 73.4895 25.691C73.2475 25.2437 73.1265 24.734 73.1265 24.162C73.1265 23.5827 73.2512 23.0693 73.5005 22.622C73.7499 22.1673 74.0799 21.8117 74.4905 21.555C74.9085 21.2983 75.3705 21.17 75.8765 21.17C76.1112 21.17 76.3385 21.203 76.5585 21.269C76.7859 21.335 76.9985 21.4267 77.1965 21.544C77.3945 21.6613 77.5742 21.8043 77.7355 21.973C77.8969 22.1343 78.0289 22.314 78.1315 22.512C78.2415 22.71 78.3185 22.9227 78.3625 23.15L78.2965 23.117L78.3185 21.225H78.5385V26.769C78.5385 27.2163 78.4689 27.616 78.3295 27.968C78.1975 28.3273 78.0105 28.628 77.7685 28.87C77.5265 29.1193 77.2479 29.31 76.9325 29.442C76.6172 29.574 76.2799 29.64 75.9205 29.64ZM75.9095 26.868C76.3569 26.868 76.7602 26.7543 77.1195 26.527C77.4862 26.2923 77.7722 25.9697 77.9775 25.559C78.1902 25.1483 78.2965 24.6753 78.2965 24.14C78.2965 23.612 78.1902 23.1427 77.9775 22.732C77.7722 22.3213 77.4862 21.9987 77.1195 21.764C76.7602 21.5293 76.3495 21.412 75.8875 21.412C75.3962 21.412 74.9599 21.5293 74.5785 21.764C74.1972 21.9987 73.9002 22.325 73.6875 22.743C73.4749 23.1537 73.3685 23.6267 73.3685 24.162C73.3685 24.6827 73.4749 25.1483 73.6875 25.559C73.9075 25.9623 74.2082 26.2813 74.5895 26.516C74.9709 26.7507 75.4109 26.868 75.9095 26.868Z" fill="black"/>
<path fill-rule="evenodd" clip-rule="evenodd" d="M23.6086 19.2085C21.6741 21.2105 18.9612 22.4553 15.9574 22.4553C10.0821 22.4553 5.31913 17.6924 5.31913 11.817C5.31913 9.90213 5.82507 8.1054 6.71056 6.55322C4.86119 8.46715 3.72339 11.073 3.72339 13.9447C3.72339 19.8201 8.48632 24.583 14.3617 24.583C18.3222 24.583 21.7772 22.4188 23.6086 19.2085Z" fill="#2B6CB0"/>
<circle cx="14" cy="1" r="1" fill="#319795"/>
<circle cx="1" cy="14" r="1" fill="#319795"/>
<circle cx="5" cy="4" r="1" fill="#319795"/>
<circle cx="14" cy="27" r="1" fill="#319795"/>
<circle cx="5" cy="24" r="1" fill="#319795"/>
<circle cx="24" cy="24" r="1" fill="#319795"/>
</svg>
